<svg xmlns="http://www.w3.org/2000/svg" viewBox="0 0 512 512">
  <rect width="512" height="512" rx="112" fill="#2563eb"/>
  <path d="M256 320c-35.3 0-64-28.7-64-64V128c0-35.3 28.7-64 64-64s64 28.7 64 64v128c0 35.3-28.7 64-64 64z" fill="white"/>
  <path d="M384 256v-24c0-13.3-10.7-24-24-24s-24 10.7-24 24v24c0 44.1-35.9 80-80 80s-80-35.9-80-80v-24c0-13.3-10.7-24-24-24s-24 10.7-24 24v24c0 64.1 48.4 117.1 110.5 126.3V448h-46.5c-13.3 0-24 10.7-24 24s10.7 24 24 24h144c13.3 0 24-10.7 24-24s-10.7-24-24-24H288v-65.7c62.1-9.2 110.5-62.2 110.5-126.3z" fill="white"/>
</svg>
